<?xml version="1.0" encoding="utf-8"?>
<!-- Generator: Adobe Illustrator 21.0.0, SVG Export Plug-In . SVG Version: 6.00 Build 0)  -->
<svg version="1.1" id="Layer_1" xmlns="http://www.w3.org/2000/svg" xmlns:xlink="http://www.w3.org/1999/xlink" x="0px" y="0px"
	 viewBox="0 0 1000 1000" style="enable-background:new 0 0 1000 1000;" xml:space="preserve">
<style type="text/css">
	.st0{fill:#0AA8D9;}
	.st1{opacity:0.57;fill:#FFFFFF;enable-background:new    ;}
	.st2{opacity:0.65;fill:#FFFFFF;enable-background:new    ;}
	.st3{opacity:0.65;fill:#FEF39E;enable-background:new    ;}
	.st4{opacity:0.65;fill:#DEF0F8;enable-background:new    ;}
	.st5{fill:#010202;}
	.st6{fill:#060707;}
	.st7{fill:#E62A2D;}
</style>
<circle class="st0" cx="502.6" cy="500.4" r="468.4"/>
<image style="overflow:visible;enable-background:new    ;" width="571" height="696" xlink:href="9AE640229EF42091.png"  transform="matrix(0.2379 0 0 0.2383 360.7424 324.8324)">
</image>
<image style="overflow:visible;enable-background:new    ;" width="283" height="342" xlink:href="9AE640229EF42093.png"  transform="matrix(0.2358 0 0 0.2372 402.2884 371.6778)">
</image>
<path class="st1" d="M442.4,381.8c0,8.9,5.9,16.1,13.2,16.1c7.3,0,13.2-7.2,13.2-16.1s-5.9-16.1-13.2-16.1
	C448.3,365.7,442.4,372.9,442.4,381.8z"/>
<path class="st2" d="M430.1,394.3c0,6.9,4.6,12.5,10.3,12.5c5.7,0,10.3-5.6,10.3-12.5s-4.6-12.5-10.3-12.5S430.1,387.4,430.1,394.3z
	"/>
<image style="overflow:visible;opacity:0.24;enable-background:new    ;" width="204" height="213" xlink:href="9AE640229EF42096.png"  transform="matrix(0.2388 0 0 0.2355 406.2104 400.4352)">
</image>
<path class="st3" d="M425.7,440.4c0,5,3.3,9,7.4,9s7.4-4,7.4-9c0-4.9-3.3-9-7.4-9C429,431.5,425.7,435.5,425.7,440.4z"/>
<ellipse class="st4" cx="428.8" cy="434" rx="4.2" ry="5.2"/>
<image style="overflow:visible;opacity:0.65;enable-background:new    ;" width="179" height="175" xlink:href="9AE640229EF42097.png"  transform="matrix(0.2346 0 0 0.2373 423.0155 377.1686)">
</image>
<image style="overflow:visible;enable-background:new    ;" width="571" height="696" xlink:href="9AE640229EF42092.png"  transform="matrix(0.2379 0 0 0.2383 520.7424 327.8324)">
</image>
<image style="overflow:visible;enable-background:new    ;" width="283" height="342" xlink:href="9AE640229EF4209D.png"  transform="matrix(0.2358 0 0 0.2372 562.2884 374.6778)">
</image>
<path class="st1" d="M602.4,384.8c0,8.9,5.9,16.1,13.2,16.1s13.2-7.2,13.2-16.1s-5.9-16.1-13.2-16.1
	C608.3,368.7,602.4,375.9,602.4,384.8z"/>
<path class="st2" d="M590.1,397.3c0,6.9,4.6,12.5,10.3,12.5s10.3-5.6,10.3-12.5s-4.6-12.5-10.3-12.5
	C594.7,384.8,590.1,390.4,590.1,397.3z"/>
<image style="overflow:visible;opacity:0.24;enable-background:new    ;" width="204" height="213" xlink:href="9AE640229EF4209E.png"  transform="matrix(0.2388 0 0 0.2355 566.2104 403.4352)">
</image>
<path class="st3" d="M585.7,443.4c0,5,3.3,9,7.4,9c4.1,0,7.4-4,7.4-9c0-4.9-3.3-9-7.4-9C589,434.5,585.7,438.5,585.7,443.4z"/>
<ellipse class="st4" cx="588.8" cy="437" rx="4.2" ry="5.2"/>
<image style="overflow:visible;opacity:0.65;enable-background:new    ;" width="179" height="175" xlink:href="9AE640229EF4209F.png"  transform="matrix(0.2346 0 0 0.2373 583.0156 380.1686)">
</image>
<path class="st5" d="M321.6,340.7c0,0-6.9-38.1,38-58.6s68.9,2.1,68.9,2.1s-30.8-38.2-75.1-16.9
	C305.4,290.5,321.6,340.7,321.6,340.7z"/>
<path class="st5" d="M682,346.7c0,0,6.9-38.1-38-58.6s-68.9,2.1-68.9,2.1s30.8-38.2,75.1-16.9C698.2,296.5,682,346.7,682,346.7z"/>
<path class="st5" d="M306.4,539.9c0,0-3.5-24.6,25.9-36.6c29.3-12,44.1,3.1,44.1,3.1s-18.8-25.3-47.7-12.7
	C297.3,507.3,306.4,539.9,306.4,539.9z"/>
<path class="st6" d="M339.4,524c0,0,4.2,34.2,29.7,65.9c24.9,30.9,70.4,59.2,122.7,61.5c39.5,1.7,95.6,2.5,139.9-16
	C709,603.1,768,542.2,768,542.2s-53.3,60.2-146.3,124.3C599.3,682,580.2,704,563.6,719c-25.1,22.6-45.8,35.9-73.4,41.5
	C388,781,351.5,626,351.5,626s-6.1-23.2-8.8-45.4C339.4,552.5,339.4,524,339.4,524z"/>
<path class="st7" d="M522.8,687.3c0,0,32.7,29.4-24.7,60.7c-11.7,6.4-41,5.3-56.6-0.1c-23.4-8-32.1-23.7-32.1-23.7
	s-23.8-37.7-1.1-47.4c28.5-12.2,59.4,27.3,59.4,27.3s2.1-9.7,0.5-17.6c-1.5-7.4-11.9-15.5-11.9-15.5s4.1-3.6,38.4,4.1
	C515.7,680,522.8,687.3,522.8,687.3z"/>
</svg>
