<?xml version="1.0" encoding="utf-8"?>
<!-- Generator: Adobe Illustrator 21.0.0, SVG Export Plug-In . SVG Version: 6.00 Build 0)  -->
<svg version="1.1" id="Layer_1" xmlns="http://www.w3.org/2000/svg" xmlns:xlink="http://www.w3.org/1999/xlink" x="0px" y="0px"
	 viewBox="0 0 1000 1000" style="enable-background:new 0 0 1000 1000;" xml:space="preserve">
<style type="text/css">
	.st0{fill:#3EAD5A;}
	.st1{opacity:0.57;fill:#FFFFFF;enable-background:new    ;}
	.st2{opacity:0.65;fill:#FFFFFF;enable-background:new    ;}
	.st3{opacity:0.65;fill:#FEF39E;enable-background:new    ;}
	.st4{opacity:0.65;fill:#DEF0F8;enable-background:new    ;}
</style>
<circle class="st0" cx="503.9" cy="500" r="468.4"/>
<image style="overflow:visible;enable-background:new    ;" width="1375" height="808" xlink:href="588BABA7F39AE6F9.png"  transform="matrix(0.2393 0 0 0.2394 339.3504 530.1946)">
</image>
<image style="overflow:visible;enable-background:new    ;" width="858" height="288" xlink:href="588BABA7F39AE6FB.png"  transform="matrix(0.2392 0 0 0.235 401.2699 653.5026)">
</image>
<path d="M599.5,732.2c0,0-16.7,38.3-90.4,37.5s-89.9-34-89.9-34s16.6,37.1,89.9,37.1C588.7,772.8,599.5,732.2,599.5,732.2z"/>
<image style="overflow:visible;enable-background:new    ;" width="692" height="696" xlink:href="588BABA7F39AE6FE.png"  transform="matrix(0.239 0 0 0.2383 339.3499 322.3492)">
</image>
<image style="overflow:visible;enable-background:new    ;" width="342" height="342" xlink:href="588BABA7F39AE6FF.png"  transform="matrix(0.2372 0 0 0.2372 381.4278 369.1946)">
</image>
<path class="st1" d="M413.6,379.3c0,8.9-7.2,16.1-16.1,16.1s-16.1-7.2-16.1-16.1s7.2-16.1,16.1-16.1
	C406.4,363.2,413.6,370.4,413.6,379.3z"/>
<path class="st2" d="M428.6,391.8c0,6.9-5.6,12.5-12.5,12.5s-12.5-5.6-12.5-12.5s5.6-12.5,12.5-12.5S428.6,384.9,428.6,391.8z"/>
<image style="overflow:visible;opacity:0.24;enable-background:new    ;" width="250" height="217" xlink:href="588BABA7F39AE6FA.png"  transform="matrix(0.2381 0 0 0.2312 398.3701 397.9519)">
</image>
<path class="st3" d="M434,437.9c0,5-4,9-9,9c-4.9,0-9-4-9-9c0-4.9,4-9,9-9C430,429,434,433,434,437.9z"/>
<ellipse class="st4" cx="430.2" cy="431.5" rx="5.2" ry="5.2"/>
<image style="overflow:visible;opacity:0.65;enable-background:new    ;" width="217" height="179" xlink:href="588BABA7F39AE6F5.png"  transform="matrix(0.2356 0 0 0.232 386.3348 374.6854)">
</image>
<path d="M672.8,533.6c0,0-30.5,187.3-165.2,183.5C373,713.3,343.2,550.6,343.2,550.6s30.3,181.6,164.4,181.6
	C653.2,732.2,672.8,533.6,672.8,533.6z"/>
<path d="M641,521.9c0,0,10-13,30.5-5.1c20.5,7.8,20.4,22.2,20.4,22.2s0.6-15.9-20-23.4C649.7,507.5,641,521.9,641,521.9z"/>
<path d="M318.2,548.4c0,0-0.7-16.4,20-23.5c20.7-7.2,29.9,3.9,29.9,3.9s-9.8-12.5-30.3-5.1C315.6,531.8,318.2,548.4,318.2,548.4z"/>
<path d="M342,313c0,0,8.6-44.1,65.9-47.4s73.7,31.4,73.7,31.4s-17.2-54.4-74.1-49.9C345.6,251.8,342,313,342,313z"/>
<path d="M668.2,313c0,0-8.6-44.1-65.9-47.4c-57.3-3.3-73.7,31.4-73.7,31.4s17.2-54.4,74.1-49.9C664.5,251.8,668.2,313,668.2,313z"/>
<path d="M675.7,422.4c0,0-7.2-26-64.2-26.1c-57-0.2-74.5,21-74.5,21s18.8-32.9,75.5-32.1C673.9,386.1,675.7,422.4,675.7,422.4z"/>
<path d="M669.3,526.1c0,0-30.5,86.9-165.2,85.1C369.5,609.4,339.7,534,339.7,534s30.3,84.3,164.4,84.3
	C649.7,618.2,669.3,526.1,669.3,526.1z"/>
<image style="overflow:visible;enable-background:new    ;" width="1296" height="442" xlink:href="588BABA7F39AE6F6.png"  transform="matrix(0.2391 0 0 0.2362 352.6841 548.7938)">
</image>
<image style="overflow:visible;enable-background:new    ;" width="913" height="271" xlink:href="588BABA7F39AE6F7.png"  transform="matrix(0.2395 0 0 0.2329 400.0427 653.8898)">
</image>
</svg>
