<?xml version="1.0" encoding="utf-8"?>
<!-- Generator: Adobe Illustrator 21.0.0, SVG Export Plug-In . SVG Version: 6.00 Build 0)  -->
<svg version="1.1" id="Layer_1" xmlns="http://www.w3.org/2000/svg" xmlns:xlink="http://www.w3.org/1999/xlink" x="0px" y="0px"
	 viewBox="0 0 1000 1000" style="enable-background:new 0 0 1000 1000;" xml:space="preserve">
<style type="text/css">
	.st0{fill:#E4723A;}
	.st1{opacity:0.65;fill:#FFFFFF;enable-background:new    ;}
	.st2{opacity:0.65;fill:#FDF3A0;enable-background:new    ;}
	.st3{opacity:0.65;fill:#DEF1F9;enable-background:new    ;}
	.st4{fill:#040506;}
</style>
<circle class="st0" cx="500" cy="500" r="468.4"/>
<image style="overflow:visible;enable-background:new    ;" width="698" height="887" xlink:href="64F55B9709123970.png"  transform="matrix(0.2047 0 0 0.205 341.9811 318.6624)">
</image>
<image style="overflow:visible;enable-background:new    ;" width="344" height="344" xlink:href="64F55B9709123971.png"  transform="matrix(0.1443 0 0 0.144 393.3426 372.1965)">
</image>
<path class="st1" d="M422.2,386c0,4.2-3.4,7.6-7.6,7.6s-7.6-3.4-7.6-7.6s3.4-7.6,7.6-7.6S422.2,381.8,422.2,386z"/>
<image style="overflow:visible;opacity:0.24;enable-background:new    ;" width="261" height="220" xlink:href="64F55B9709123977.png"  transform="matrix(0.1395 0 0 0.1393 403.7036 389.7558)">
</image>
<path class="st2" d="M425.5,414.1c0,3.1-2.4,5.5-5.5,5.5c-3,0-5.5-2.4-5.5-5.5c0-3,2.4-5.5,5.5-5.5
	C423,408.7,425.5,411.2,425.5,414.1z"/>
<ellipse class="st3" cx="423.2" cy="410.2" rx="3.2" ry="3.2"/>
<image style="overflow:visible;opacity:0.65;enable-background:new    ;" width="222" height="181" xlink:href="64F55B9709123972.png"  transform="matrix(0.1409 0 0 0.1401 396.3435 375.5492)">
</image>
<image style="overflow:visible;enable-background:new    ;" width="693" height="887" xlink:href="64F55B9709123973.png"  transform="matrix(0.2062 0 0 0.205 537.0675 319.3931)">
</image>
<image style="overflow:visible;enable-background:new    ;" width="351" height="351" xlink:href="64F55B970912397E.png"  transform="matrix(0.1414 0 0 0.1411 588.429 372.9272)">
</image>
<path class="st1" d="M617.3,386.7c0,4.2-3.4,7.6-7.6,7.6s-7.6-3.4-7.6-7.6s3.4-7.6,7.6-7.6S617.3,382.5,617.3,386.7z"/>
<image style="overflow:visible;opacity:0.24;enable-background:new    ;" width="261" height="220" xlink:href="64F55B970912397F.png"  transform="matrix(0.1395 0 0 0.1393 598.7899 390.4865)">
</image>
<path class="st2" d="M620.6,414.9c0,3.1-2.4,5.5-5.5,5.5c-3,0-5.5-2.4-5.5-5.5c0-3,2.4-5.5,5.5-5.5
	C618.1,409.4,620.6,411.9,620.6,414.9z"/>
<ellipse class="st3" cx="618.3" cy="411" rx="3.2" ry="3.2"/>
<image style="overflow:visible;opacity:0.65;enable-background:new    ;" width="222" height="181" xlink:href="64F55B9709123974.png"  transform="matrix(0.1409 0 0 0.1401 591.4298 376.2798)">
</image>
<image style="overflow:visible;enable-background:new    ;" width="679" height="396" xlink:href="64F55B9709123975.png"  transform="matrix(0.2382 0 0 0.2364 336.3561 545.6583)">
</image>
<g>
	<g>
		<g>
			<path d="M638.6,578.9c0,0-0.9,1.7-2.5,5c-0.4,0.8-1,1.7-1.6,2.7s-1.2,2-2,3.2c-1.6,2.2-3.4,4.8-5.8,7.3
				c-4.7,5.3-11.2,11.1-19.6,16.5c-1,0.7-2.2,1.3-3.3,2c-1.1,0.6-2.2,1.4-3.4,2c-2.4,1.2-4.8,2.6-7.4,3.7
				c-5.1,2.5-10.7,4.7-16.7,6.7c-6,2.1-12.3,3.9-19.1,5.4c-6.7,1.6-13.8,2.9-21.1,3.9c-7.4,1-15,1.8-22.9,2.2c-2,0.1-4,0.1-6,0.2
				c-1,0-2,0-3.1,0c-0.5,0-1,0-1.6,0h-0.8l-0.9-0.1l-0.9-0.1l-0.8-0.1H499c-0.3-0.1-0.1,0-0.2-0.1l-0.2-0.1l-0.4-0.1l-0.8-0.2
				c-1-0.3-2-0.6-3.1-0.9c-1-0.3-2-0.8-3-1.1c-1-0.4-2-0.8-3-1.2c-7.8-3.7-14.9-9.1-21.2-15.2c-6.3-6.2-12.1-13.1-17.7-20.2
				c-5.6-7.1-11.1-14.5-16.9-21.6c-3-3.5-5.9-7.1-9.2-10.3c-0.8-0.8-1.6-1.7-2.4-2.4l-2.5-2.4c-1.8-1.5-3.5-3.1-5.3-4.4
				c-0.9-0.7-1.8-1.4-2.8-2l-2.9-1.9c-1-0.6-2-1.1-3-1.6l-1.5-0.8l-1.5-0.7c-4.1-1.9-8.4-2.9-12.7-3.5c-1.1-0.1-2.2-0.2-3.3-0.3
				c-1.1,0-2.2,0-3.3,0c-1.1,0-2.2,0-3.2,0.2c-1.1,0.1-2.1,0.2-3.2,0.4c-0.3,0-0.5,0.1-0.8,0.1l-0.8,0.2l-1.7,0.4
				c-1.1,0.2-2.1,0.5-3.2,0.7c-1.1,0.3-2.1,0.6-3.2,0.9c-1.1,0.3-2.1,0.7-3.1,1.1c-4.1,1.5-7.9,3.4-11.3,5.8
				c-3.4,2.4-6.3,5.3-8.4,8.7c-2,3.4-3.3,7.2-3.6,11.1c-0.2,3.9,0.4,7.8,1.6,11.5c2.5,7.4,7.4,13.8,12.9,19c0.7,0.6,1.4,1.3,2.1,1.9
				c0.7,0.6,1.5,1.2,2.2,1.8s1.5,1.1,2.3,1.6l1.1,0.8l1.2,0.8c3.1,2,6.4,3.8,9.6,5.6c12.8,7,25.5,12.3,37.7,15.1
				c6.1,1.4,12,2.2,17.6,2.4c1.4,0,2.8,0.1,4.2,0.1c1.4,0,2.7,0,4,0c2.7,0,5.2,0.1,7.7,0.1c10,0.2,18.5,0.3,25.6,0.3
				c7-0.1,12.5-0.3,16.1-0.7c1.8-0.2,3.2-0.3,4.2-0.5c0.9-0.2,1.4-0.3,1.4-0.4s-0.5-0.1-1.4-0.1c-0.9,0.1-2.3,0.2-4.2,0.3
				c-3.7,0.3-9.1,0.6-16.1,0.9c-7,0.3-15.6,0.4-25.5,0.6c-2.5,0.1-5.1,0.1-7.7,0.2c-1.3,0-2.7,0.1-4.1,0.1s-2.8,0-4.2,0.1
				c-5.7,0-11.7-0.6-17.9-1.8c-12.4-2.4-25.5-7.3-38.7-14.1c-3.3-1.7-6.6-3.4-10-5.4l-1.2-0.7l-1.2-0.8c-0.8-0.6-1.7-1.1-2.5-1.7
				c-0.8-0.6-1.6-1.2-2.4-1.8s-1.5-1.3-2.3-1.9c-3-2.7-5.9-5.7-8.4-9.1c-2.5-3.4-4.7-7.1-6.1-11.3c-1.5-4.1-2.3-8.6-2.1-13.2
				c0.2-4.6,1.6-9.2,4-13.3s5.8-7.5,9.6-10.3c3.8-2.8,8-4.9,12.4-6.6c1.1-0.4,2.2-0.9,3.3-1.2c1.1-0.3,2.2-0.7,3.4-1
				c1.1-0.3,2.3-0.5,3.5-0.8l1.7-0.4l0.8-0.2l0.9-0.1c2.4-0.3,4.9-0.7,7.3-0.7c1.2,0,2.4-0.1,3.7,0c1.2,0.1,2.4,0.2,3.7,0.3
				c4.9,0.6,9.8,1.8,14.3,3.9l1.7,0.7l1.6,0.9c1.1,0.6,2.2,1.1,3.3,1.8l3.1,2c1.1,0.7,2,1.5,3,2.2c2,1.4,3.8,3.1,5.7,4.7l2.6,2.5
				c0.9,0.8,1.7,1.7,2.6,2.6c3.4,3.4,6.4,7.1,9.5,10.7c5.9,7.3,11.4,14.7,16.9,21.8s11,13.9,17,19.9s12.6,11.1,19.7,14.6
				c0.9,0.5,1.8,0.8,2.7,1.2c0.9,0.4,1.8,0.8,2.7,1.1c0.9,0.3,1.9,0.6,2.8,0.9l1.3,0.4l0.7,0.1l0.6,0.1l0.6,0.1h0.7
				c0.5,0,1,0.1,1.5,0.1c1,0,2,0.1,2.9,0.1c2,0,3.9,0,5.9,0c7.8-0.2,15.3-0.8,22.6-1.7s14.2-2,20.9-3.4s13-3,18.9-4.9
				c5.9-1.8,11.5-3.9,16.6-6.1c2.6-1.1,5-2.3,7.4-3.5c1.2-0.6,2.3-1.2,3.4-1.8c1.1-0.6,2.2-1.2,3.3-1.9c8.5-5.1,15.1-10.6,19.9-15.6
				c2.5-2.5,4.3-5,6-7.1c0.8-1.1,1.5-2.1,2.1-3.1s1.3-1.8,1.7-2.6C637.7,580.6,638.6,578.9,638.6,578.9z"/>
		</g>
	</g>
</g>
<g>
	<g>
		<g>
			<path d="M337.7,563c0,0,1.9,1.2,5.3,3.4c0.9,0.5,1.8,1.1,2.8,1.8c1.1,0.6,2.2,1.3,3.4,2.1c1.2,0.7,2.5,1.5,3.9,2.4
				c1.4,0.8,2.9,1.7,4.5,2.6c12.5,7.3,30.3,16.4,50.4,25.7c20,9.3,38.2,17.7,51.3,23.9c6.5,3.1,11.8,5.7,15.5,7.4
				c1.8,0.9,3.3,1.5,4.2,2c1,0.4,1.5,0.6,1.5,0.6s-0.5-0.3-1.4-0.8c-1-0.4-2.4-1.1-4.2-1.9c-3.7-1.7-9.1-4-15.7-6.9
				c-13.3-5.8-31.7-13.6-51.8-22.9c-20.1-9.3-37.8-18.8-50.1-26.4c-1.5-0.9-3-1.8-4.4-2.7s-2.7-1.7-3.9-2.5
				c-1.2-0.8-2.3-1.5-3.4-2.2c-1-0.7-1.9-1.3-2.8-1.9C339.6,564.2,337.7,563,337.7,563z"/>
		</g>
	</g>
</g>
<g>
	<g>
		<g>
			<path d="M429.5,577.3c0,0-1.1,3.1-3.1,8s-5,11.6-7.8,19.2c-1.4,3.8-2.5,7.4-3.4,10.8c-0.2,0.8-0.4,1.7-0.5,2.5
				c-0.1,0.4-0.2,0.8-0.3,1.2c-0.1,0.4-0.1,0.8-0.2,1.2c-0.1,0.8-0.2,1.5-0.3,2.2c-0.1,0.7-0.1,1.4-0.2,2.1c0,0.7-0.1,1.3-0.1,1.9
				c0,0.6,0,1.2,0,1.7s0,1,0,1.5s0.1,0.9,0.2,1.2c0.2,1.5,0.4,2.3,0.5,2.3c0.3-0.1-0.9-3.2-1.1-8.5c0-0.7,0-1.4,0-2.1
				c0-0.7,0.1-1.5,0.1-2.3c0-0.4,0.1-0.8,0.1-1.2c0.1-0.4,0.1-0.8,0.2-1.2c0.1-0.8,0.2-1.7,0.4-2.6c0.7-3.5,1.7-7.2,3.1-11.1
				c2.8-7.6,6.2-14.2,8.6-18.9C428,580.2,429.5,577.3,429.5,577.3z"/>
		</g>
	</g>
</g>
<g>
	<g>
		<g>
			<path d="M396.4,548.3c0,0-0.6,0.9-1.6,2.5c-0.5,0.8-1.1,1.8-1.8,2.9c-0.7,1.1-1.5,2.5-2.4,3.9c-1.8,2.9-3.7,6.4-5.9,10.4
				c-2.1,4-4.3,8.4-6.4,13.1c-2.1,4.7-4,9.3-5.6,13.5c-0.7,2.1-1.5,4.1-2.1,6c-0.3,1-0.6,1.9-0.9,2.8c-0.3,0.9-0.5,1.7-0.7,2.6
				c-0.5,1.6-0.8,3.1-1.2,4.4c-0.2,0.7-0.3,1.3-0.4,1.8c-0.1,0.6-0.2,1.1-0.3,1.6c-0.3,1.9-0.5,2.9-0.4,2.9c0.3,0,0.5-4.2,1.8-10.9
				c0.2-0.8,0.4-1.7,0.5-2.6c0.2-0.9,0.5-1.8,0.7-2.8c0.5-2,1.1-4,1.8-6.2c1.4-4.3,3.1-9,5.3-13.7c2.2-4.7,4.5-9.2,6.7-13.1
				c2.3-3.9,4.4-7.4,6.4-10.2c0.9-1.4,1.8-2.7,2.6-3.8c0.8-1.1,1.5-2,2.1-2.8C395.8,549.2,396.4,548.3,396.4,548.3z"/>
		</g>
	</g>
</g>
<path class="st4" d="M332.1,311.8c0,0,58.8,32.5,104.8,55.5c26.1,13.1,51.4,22.6,51.4,22.6s-42.8,4.6-84.3-12.3
	c-29.4-12-61.6-47.3-61.6-47.3L332.1,311.8z"/>
<path class="st4" d="M679.6,330.3c0,0-32.3,35.3-61.6,47.3c-41.5,16.9-84.3,12.3-84.3,12.3s25.3-9.5,51.4-22.6
	c46-23,104.8-55.5,104.8-55.5L679.6,330.3z"/>
<path class="st4" d="M325.3,561.9c0,0,6.8-16.8,21.2-24.5c12.9-6.9,33.6-4.8,33.6-4.8s-18.5-5.8-32.3-2.3
	c-13.3,3.5-19.3,13.9-19.3,13.9s-3.8,6.2-3.9,9.5C324.4,557.9,325.3,561.9,325.3,561.9z"/>
</svg>
