<?xml version="1.0" encoding="utf-8"?>
<!-- Generator: Adobe Illustrator 21.0.0, SVG Export Plug-In . SVG Version: 6.00 Build 0)  -->
<svg version="1.1" id="Layer_1" xmlns="http://www.w3.org/2000/svg" xmlns:xlink="http://www.w3.org/1999/xlink" x="0px" y="0px"
	 viewBox="0 0 1000 1000" style="enable-background:new 0 0 1000 1000;" xml:space="preserve">
<style type="text/css">
	.st0{fill:#D13D8F;}
	.st1{fill:#010202;}
	.st2{opacity:0.57;fill:#FFFFFF;enable-background:new    ;}
	.st3{opacity:0.65;fill:#FFFFFF;enable-background:new    ;}
	.st4{opacity:0.65;fill:#FEF39E;enable-background:new    ;}
	.st5{opacity:0.65;fill:#DEF0F8;enable-background:new    ;}
</style>
<circle class="st0" cx="506.4" cy="500" r="468.4"/>
<image style="overflow:visible;enable-background:new    ;" width="1375" height="808" xlink:href="716D13A5C4392F6E.png"  transform="matrix(0.2393 0 0 0.2394 341.8642 530.1946)">
</image>
<image style="overflow:visible;enable-background:new    ;" width="858" height="288" xlink:href="716D13A5C4392F72.png"  transform="matrix(0.2392 0 0 0.235 403.7287 653.5026)">
</image>
<path class="st1" d="M410.5,732.2c0,0,16.7,38.3,90.4,37.5s89.9-34,89.9-34s-16.6,37.1-89.9,37.1
	C421.3,772.8,410.5,732.2,410.5,732.2z"/>
<image style="overflow:visible;enable-background:new    ;" width="692" height="696" xlink:href="716D13A5C4392F75.png"  transform="matrix(0.239 0 0 0.2383 505.4872 322.3492)">
</image>
<image style="overflow:visible;enable-background:new    ;" width="342" height="342" xlink:href="716D13A5C4392F76.png"  transform="matrix(0.2372 0 0 0.2372 547.5633 369.1946)">
</image>
<path class="st2" d="M596.5,379.3c0,8.9,7.2,16.1,16.1,16.1c8.9,0,16.1-7.2,16.1-16.1s-7.2-16.1-16.1-16.1
	C603.6,363.2,596.5,370.4,596.5,379.3z"/>
<path class="st3" d="M581.4,391.8c0,6.9,5.6,12.5,12.5,12.5s12.5-5.6,12.5-12.5s-5.6-12.5-12.5-12.5S581.4,384.9,581.4,391.8z"/>
<image style="overflow:visible;opacity:0.24;enable-background:new    ;" width="250" height="217" xlink:href="716D13A5C4392F74.png"  transform="matrix(0.2381 0 0 0.2312 552.3403 397.9519)">
</image>
<path class="st4" d="M576,437.9c0,5,4,9,9,9c4.9,0,9-4,9-9c0-4.9-4-9-9-9C580.1,429,576,433,576,437.9z"/>
<ellipse class="st5" cx="579.8" cy="431.5" rx="5.2" ry="5.2"/>
<image style="overflow:visible;opacity:0.65;enable-background:new    ;" width="217" height="179" xlink:href="716D13A5C4392F73.png"  transform="matrix(0.2356 0 0 0.232 572.8084 374.6854)">
</image>
<path class="st1" d="M337.2,533.6c0,0,30.5,187.3,165.2,183.5s164.4-166.5,164.4-166.5s-30.3,181.6-164.4,181.6
	C356.8,732.2,337.2,533.6,337.2,533.6z"/>
<path class="st1" d="M369,521.9c0,0-10-13-30.5-5.1c-20.5,7.8-20.4,22.2-20.4,22.2s-0.6-15.9,20-23.4
	C360.3,507.5,369,521.9,369,521.9z"/>
<path class="st1" d="M691.8,548.4c0,0,0.7-16.4-20-23.5c-20.7-7.2-29.9,3.9-29.9,3.9s9.8-12.5,30.3-5.1
	C694.4,531.8,691.8,548.4,691.8,548.4z"/>
<path class="st1" d="M668,313c0,0-8.6-44.1-65.9-47.4c-57.3-3.3-73.7,31.4-73.7,31.4s17.2-54.4,74.1-49.9
	C664.4,251.8,668,313,668,313z"/>
<path class="st1" d="M341.9,313c0,0,8.6-44.1,65.9-47.4s73.7,31.4,73.7,31.4s-17.2-54.4-74.1-49.9C345.5,251.8,341.9,313,341.9,313z
	"/>
<path class="st1" d="M334.4,422.4c0,0,7.2-26,64.2-26.1c57-0.2,74.5,21,74.5,21s-18.8-32.9-75.5-32.1
	C336.1,386.1,334.4,422.4,334.4,422.4z"/>
<path class="st1" d="M340.7,526.1c0,0,30.5,86.9,165.2,85.1c134.7-1.8,164.4-77.2,164.4-77.2s-30.3,84.3-164.4,84.3
	C360.3,618.2,340.7,526.1,340.7,526.1z"/>
<image style="overflow:visible;enable-background:new    ;" width="1296" height="442" xlink:href="716D13A5C4392F7D.png"  transform="matrix(0.2391 0 0 0.2362 347.6852 548.7938)">
</image>
<image style="overflow:visible;enable-background:new    ;" width="917" height="271" xlink:href="716D13A5C4392F7E.png"  transform="matrix(0.2384 0 0 0.2329 391.3741 653.8898)">
</image>
</svg>
