<?xml version="1.0" encoding="utf-8"?>
<!-- Generator: Adobe Illustrator 21.0.0, SVG Export Plug-In . SVG Version: 6.00 Build 0)  -->
<svg version="1.1" id="Layer_1" xmlns="http://www.w3.org/2000/svg" xmlns:xlink="http://www.w3.org/1999/xlink" x="0px" y="0px"
	 viewBox="0 0 1000 1000" style="enable-background:new 0 0 1000 1000;" xml:space="preserve">
<style type="text/css">
	.st0{fill:#76539E;}
	.st1{fill:#010202;}
	.st2{fill:#FFFFFF;stroke:#000000;stroke-width:5;stroke-miterlimit:10;}
	.st3{fill:#AFAFAE;}
	.st4{fill:#ACACAC;}
	.st5{opacity:0.57;fill:#FFFFFF;enable-background:new    ;}
	.st6{opacity:0.65;fill:#FFFFFF;enable-background:new    ;}
	.st7{opacity:0.65;fill:#FDF3A0;enable-background:new    ;}
	.st8{opacity:0.65;fill:#DEF1F9;enable-background:new    ;}
</style>
<circle class="st0" cx="492.9" cy="500" r="468.4"/>
<path class="st1" d="M231,553.5c0,0-4.2-23,23-35.4c27.1-12.4,41.6,1.3,41.6,1.3s-18.6-23.1-45.3-10.2
	C221.2,523.2,231,553.5,231,553.5z"/>
<path class="st1" d="M772.7,554.9c0,0,4.2-23-23-35.4c-27.1-12.4-41.6,1.3-41.6,1.3s18.6-23.1,45.3-10.2
	C782.4,524.6,772.7,554.9,772.7,554.9z"/>
<path class="st2" d="M259.4,533.5c0,0,81.1,58.6,237,58.6c153.3,0,245.1-58.6,245.1-58.6S718.1,744.2,511,768
	c-43.2,5-97.3-12.5-134.7-37.5c-18.7-12.5-55.3-46.3-74.7-79.8C271,597.7,261,541.6,261,541.6L259.4,533.5z"/>
<path class="st3" d="M398.2,641.8c0,0-57.6-11.7-100.2-51.6c-16.3-15.2-20.4-43.8-20.4-43.8l-15.6-9c0,0,3.6,19.7,8.8,36.3
	c5.8,18.7,12.5,35.5,12.5,35.5s3.6-24.1,16-9.9c0,0,26,18.7,54,30.9C374.4,639.5,398.2,641.8,398.2,641.8z"/>
<path class="st3" d="M648.4,629.2c27.9-12.2,54-30.9,54-30.9c12.4-14.2,16,9.9,16,9.9s6.8-16.8,12.5-35.5
	c5.1-16.6,8.8-36.3,8.8-36.3l-15.6,9c0,0-4.1,28.6-20.4,43.8c-42.6,39.9-100.2,51.6-100.2,51.6S627.1,638.5,648.4,629.2z"/>
<path class="st3" d="M408.1,615.6c0,0-1.7-5.4-0.7-13.1c0.9-7.3,3.8-14.8,3.8-14.8l-5.2-0.8c0,0-0.9,9-0.5,15
	C405.9,609.9,408.1,615.6,408.1,615.6z"/>
<path class="st3" d="M599,600.2c0.4-6-0.4-15.3-0.4-15.3l-5.3,0.9c0,0,2.8,7.6,3.7,14.9c1,7.7-0.7,13.1-0.7,13.1
	S598.5,608.2,599,600.2z"/>
<path class="st3" d="M402,726.6c-3.6,4.8-7.8,12.9-7.8,12.9l4.8,2.2c0,0,1.7-7.8,4.9-14.4c3.4-7,7.8-10.5,7.8-10.5
	S406.7,720.2,402,726.6z"/>
<path class="st3" d="M582.4,717.8c0,0,4.6,3.3,8.3,10.1c3.5,6.5,5.8,14.2,5.8,14.2l4.8-2.4c0,0-4.8-8-8.7-12.6
	C587.5,721.2,582.4,717.8,582.4,717.8z"/>
<path class="st3" d="M555.5,739.5c0,0,3,2.2,5.4,6.6c2.3,4.2,3.6,8.9,3.6,8.9l3.2-1.2c0,0-3.1-5.2-5.6-8.2
	C558.8,741.7,555.5,739.5,555.5,739.5z"/>
<path class="st3" d="M439.8,748.2c-2.5,3-5.6,8.2-5.6,8.2l3.2,1.2c0,0,1.3-4.7,3.6-8.9c2.4-4.4,5.4-6.6,5.4-6.6
	S443.2,744.3,439.8,748.2z"/>
<path class="st3" d="M568.7,599.2c1-3.8,1.5-9.8,1.5-9.8l-3.4,0.3c0,0,0.8,4.8,0.6,9.6c-0.3,5-2,8.2-2,8.2S567.4,604.2,568.7,599.2z
	"/>
<path class="st3" d="M449.9,609.7c0,0-1.8-3.2-2.1-8.2c-0.3-4.8,0.5-9.6,0.5-9.6l-3.4-0.3c0,0,0.6,6,1.6,9.8
	C447.8,606.3,449.9,609.7,449.9,609.7z"/>
<path class="st4" d="M502.3,593.5h4.7l-2.8,20.7L502.3,593.5z"/>
<path class="st4" d="M503.9,746.3l2.8,20.7H502L503.9,746.3z"/>
<image style="overflow:visible;enable-background:new    ;" width="694" height="698" xlink:href="DF3D0A887C788AED.png"  transform="matrix(0.2383 0 0 0.2376 492.9253 269.7331)">
</image>
<image style="overflow:visible;enable-background:new    ;" width="346" height="346" xlink:href="DF3D0A887C788AEF.png"  transform="matrix(0.2345 0 0 0.2345 535.0032 316.5785)">
</image>
<path class="st5" d="M567.2,326.6c0,8.9-7.2,16.1-16.1,16.1c-8.9,0-16.1-7.2-16.1-16.1s7.2-16.1,16.1-16.1
	C560,310.5,567.2,317.7,567.2,326.6z"/>
<path class="st6" d="M582.2,339.1c0,6.9-5.6,12.5-12.5,12.5s-12.5-5.6-12.5-12.5s5.6-12.5,12.5-12.5
	C576.6,326.6,582.2,332.2,582.2,339.1z"/>
<image style="overflow:visible;opacity:0.24;enable-background:new    ;" width="252" height="214" xlink:href="DF3D0A887C788AEA.png"  transform="matrix(0.2362 0 0 0.2344 551.9455 345.3358)">
</image>
<path class="st7" d="M587.6,385.2c0,5-4,9-9,9c-4.9,0-9-4-9-9c0-4.9,4-9,9-9C583.6,376.3,587.6,380.3,587.6,385.2z"/>
<ellipse class="st8" cx="583.8" cy="378.8" rx="5.2" ry="5.2"/>
<image style="overflow:visible;opacity:0.65;enable-background:new    ;" width="221" height="183" xlink:href="DF3D0A887C788AEB.png"  transform="matrix(0.2313 0 0 0.2269 539.9102 322.0693)">
</image>
<image style="overflow:visible;enable-background:new    ;" width="694" height="698" xlink:href="DF3D0A887C788AF5.png"  transform="matrix(0.2383 0 0 0.2376 312.9253 271.7331)">
</image>
<image style="overflow:visible;enable-background:new    ;" width="346" height="346" xlink:href="DF3D0A887C788AF7.png"  transform="matrix(0.2345 0 0 0.2345 355.0032 318.5785)">
</image>
<path class="st5" d="M387.2,328.6c0,8.9-7.2,16.1-16.1,16.1s-16.1-7.2-16.1-16.1s7.2-16.1,16.1-16.1
	C380,312.5,387.2,319.7,387.2,328.6z"/>
<path class="st6" d="M402.2,341.1c0,6.9-5.6,12.5-12.5,12.5s-12.5-5.6-12.5-12.5s5.6-12.5,12.5-12.5S402.2,334.2,402.2,341.1z"/>
<image style="overflow:visible;opacity:0.24;enable-background:new    ;" width="252" height="214" xlink:href="DF3D0A887C788AFA.png"  transform="matrix(0.2362 0 0 0.2344 371.9455 347.3358)">
</image>
<path class="st7" d="M407.6,387.2c0,5-4,9-9,9c-4.9,0-9-4-9-9c0-4.9,4-9,9-9C403.6,378.3,407.6,382.3,407.6,387.2z"/>
<ellipse class="st8" cx="403.8" cy="380.8" rx="5.2" ry="5.2"/>
<image style="overflow:visible;opacity:0.65;enable-background:new    ;" width="221" height="183" xlink:href="DF3D0A887C788AFB.png"  transform="matrix(0.2313 0 0 0.2269 359.9102 324.0693)">
</image>
<path class="st1" d="M315.6,260.3c0,0,8.6-44.1,65.9-47.4s73.7,31.4,73.7,31.4s-17.2-54.4-74.1-49.9
	C319.2,199.1,315.6,260.3,315.6,260.3z"/>
<path class="st1" d="M641.8,260.3c0,0-8.6-44.1-65.9-47.4c-57.3-3.3-73.7,31.4-73.7,31.4s17.2-54.4,74.1-49.9
	C638.1,199.1,641.8,260.3,641.8,260.3z"/>
</svg>
