<?xml version="1.0" encoding="utf-8"?>
<!-- Generator: Adobe Illustrator 21.0.0, SVG Export Plug-In . SVG Version: 6.00 Build 0)  -->
<svg version="1.1" id="Layer_1" xmlns="http://www.w3.org/2000/svg" xmlns:xlink="http://www.w3.org/1999/xlink" x="0px" y="0px"
	 viewBox="0 0 1000 1000" style="enable-background:new 0 0 1000 1000;" xml:space="preserve">
<style type="text/css">
	.st0{fill:#E31616;}
	.st1{fill:#010202;}
	.st2{fill:#FFFFFF;stroke:#000000;stroke-width:5;stroke-miterlimit:10;}
	.st3{fill:#AFAFAE;}
	.st4{fill:#ACACAC;}
	.st5{opacity:0.57;fill:#FFFFFF;enable-background:new    ;}
	.st6{opacity:0.65;fill:#FFFFFF;enable-background:new    ;}
	.st7{opacity:0.65;fill:#FDF3A0;enable-background:new    ;}
	.st8{opacity:0.65;fill:#DEF1F9;enable-background:new    ;}
</style>
<circle class="st0" cx="520.5" cy="484.9" r="468.4"/>
<path class="st1" d="M258.5,573.2c0,0-4.2-23,23-35.4c27.1-12.4,41.6,1.3,41.6,1.3s-18.6-23.1-45.3-10.2
	C248.7,542.9,258.5,573.2,258.5,573.2z"/>
<path class="st1" d="M800.2,574.6c0,0,4.2-23-23-35.4c-27.1-12.4-41.6,1.3-41.6,1.3s18.6-23.1,45.3-10.2
	C809.9,544.3,800.2,574.6,800.2,574.6z"/>
<path class="st2" d="M286.9,553.2c0,0,81.1,58.6,237,58.6c153.3,0,245.1-58.6,245.1-58.6s-23.4,210.7-230.5,234.5
	c-43.2,5-97.3-12.5-134.7-37.5c-18.7-12.5-55.3-46.3-74.7-79.8c-30.6-53-40.6-109.1-40.6-109.1L286.9,553.2z"/>
<path class="st3" d="M425.7,661.5c0,0-57.6-11.7-100.2-51.6c-16.3-15.2-20.4-43.8-20.4-43.8l-15.6-9c0,0,3.6,19.7,8.8,36.3
	c5.8,18.7,12.5,35.5,12.5,35.5s3.6-24.1,16-9.9c0,0,26,18.7,54,30.9C401.9,659.2,425.7,661.5,425.7,661.5z"/>
<path class="st3" d="M675.9,648.9c27.9-12.2,54-30.9,54-30.9c12.4-14.2,16,9.9,16,9.9s6.8-16.8,12.5-35.5
	c5.1-16.6,8.8-36.3,8.8-36.3l-15.6,9c0,0-4.1,28.6-20.4,43.8C688.6,648.8,631,660.5,631,660.5S654.6,658.2,675.9,648.9z"/>
<path class="st3" d="M435.6,635.3c0,0-1.7-5.4-0.7-13.1c0.9-7.3,3.8-14.8,3.8-14.8l-5.2-0.8c0,0-0.9,9-0.5,15
	C433.4,629.6,435.6,635.3,435.6,635.3z"/>
<path class="st3" d="M626.5,619.9c0.4-6-0.4-15.3-0.4-15.3l-5.3,0.9c0,0,2.8,7.6,3.7,14.9c1,7.7-0.7,13.1-0.7,13.1
	S626,627.9,626.5,619.9z"/>
<path class="st3" d="M429.5,746.3c-3.6,4.8-7.8,12.9-7.8,12.9l4.8,2.2c0,0,1.7-7.8,4.9-14.4c3.4-7,7.8-10.5,7.8-10.5
	S434.2,739.9,429.5,746.3z"/>
<path class="st3" d="M609.9,737.5c0,0,4.6,3.3,8.3,10.1c3.5,6.5,5.8,14.2,5.8,14.2l4.8-2.4c0,0-4.8-8-8.7-12.6
	C615,740.9,609.9,737.5,609.9,737.5z"/>
<path class="st3" d="M583,759.2c0,0,3,2.2,5.4,6.6c2.3,4.2,3.6,8.9,3.6,8.9l3.2-1.2c0,0-3.1-5.2-5.6-8.2
	C586.3,761.4,583,759.2,583,759.2z"/>
<path class="st3" d="M467.3,767.9c-2.5,3-5.6,8.2-5.6,8.2l3.2,1.2c0,0,1.3-4.7,3.6-8.9c2.4-4.4,5.4-6.6,5.4-6.6
	S470.7,764,467.3,767.9z"/>
<path class="st3" d="M596.2,618.9c1-3.8,1.5-9.8,1.5-9.8l-3.4,0.3c0,0,0.8,4.8,0.6,9.6c-0.3,5-2,8.2-2,8.2S594.9,623.9,596.2,618.9z
	"/>
<path class="st3" d="M477.4,629.4c0,0-1.8-3.2-2.1-8.2c-0.3-4.8,0.5-9.6,0.5-9.6l-3.4-0.3c0,0,0.6,6,1.6,9.8
	C475.3,626,477.4,629.4,477.4,629.4z"/>
<path class="st4" d="M529.8,613.2h4.7l-2.8,20.7L529.8,613.2z"/>
<path class="st4" d="M531.4,766l2.8,20.7h-4.7L531.4,766z"/>
<image style="overflow:visible;enable-background:new    ;" width="694" height="698" xlink:href="11A239F365E2430D.png"  transform="matrix(0.2383 0 0 0.2376 520.4548 289.3973)">
</image>
<image style="overflow:visible;enable-background:new    ;" width="346" height="346" xlink:href="11A239F365E2430F.png"  transform="matrix(0.2345 0 0 0.2345 562.5327 336.2427)">
</image>
<path class="st5" d="M594.7,346.3c0,8.9-7.2,16.1-16.1,16.1c-8.9,0-16.1-7.2-16.1-16.1s7.2-16.1,16.1-16.1
	C587.5,330.2,594.7,337.4,594.7,346.3z"/>
<path class="st6" d="M609.7,358.8c0,6.9-5.6,12.5-12.5,12.5s-12.5-5.6-12.5-12.5s5.6-12.5,12.5-12.5
	C604.1,346.3,609.7,351.9,609.7,358.8z"/>
<image style="overflow:visible;opacity:0.24;enable-background:new    ;" width="252" height="214" xlink:href="11A239F365E2430A.png"  transform="matrix(0.2362 0 0 0.2344 579.475 365)">
</image>
<path class="st7" d="M615.1,404.9c0,5-4,9-9,9c-4.9,0-9-4-9-9c0-4.9,4-9,9-9C611.1,396,615.1,400,615.1,404.9z"/>
<ellipse class="st8" cx="611.3" cy="398.5" rx="5.2" ry="5.2"/>
<image style="overflow:visible;opacity:0.65;enable-background:new    ;" width="221" height="183" xlink:href="11A239F365E2430B.png"  transform="matrix(0.2313 0 0 0.2269 567.4397 341.7335)">
</image>
<image style="overflow:visible;enable-background:new    ;" width="694" height="698" xlink:href="11A239F365E24315.png"  transform="matrix(0.2383 0 0 0.2376 340.4548 291.3973)">
</image>
<image style="overflow:visible;enable-background:new    ;" width="346" height="346" xlink:href="11A239F365E24317.png"  transform="matrix(0.2345 0 0 0.2345 382.5327 338.2427)">
</image>
<path class="st5" d="M414.7,348.3c0,8.9-7.2,16.1-16.1,16.1s-16.1-7.2-16.1-16.1s7.2-16.1,16.1-16.1
	C407.5,332.2,414.7,339.4,414.7,348.3z"/>
<path class="st6" d="M429.7,360.8c0,6.9-5.6,12.5-12.5,12.5s-12.5-5.6-12.5-12.5s5.6-12.5,12.5-12.5S429.7,353.9,429.7,360.8z"/>
<image style="overflow:visible;opacity:0.24;enable-background:new    ;" width="252" height="214" xlink:href="11A239F365E2431A.png"  transform="matrix(0.2362 0 0 0.2344 399.475 367)">
</image>
<path class="st7" d="M435.1,406.9c0,5-4,9-9,9c-4.9,0-9-4-9-9c0-4.9,4-9,9-9C431.1,398,435.1,402,435.1,406.9z"/>
<ellipse class="st8" cx="431.3" cy="400.5" rx="5.2" ry="5.2"/>
<image style="overflow:visible;opacity:0.65;enable-background:new    ;" width="221" height="183" xlink:href="11A239F365E2431B.png"  transform="matrix(0.2313 0 0 0.2269 387.4397 343.7335)">
</image>
<path class="st1" d="M343.1,280c0,0,8.6-44.1,65.9-47.4s73.7,31.4,73.7,31.4s-17.2-54.4-74.1-49.9C346.7,218.8,343.1,280,343.1,280z
	"/>
<path class="st1" d="M669.3,280c0,0-8.6-44.1-65.9-47.4c-57.3-3.3-73.7,31.4-73.7,31.4s17.2-54.4,74.1-49.9
	C665.6,218.8,669.3,280,669.3,280z"/>
</svg>
