<?xml version="1.0" encoding="utf-8"?>
<!-- Generator: Adobe Illustrator 21.0.0, SVG Export Plug-In . SVG Version: 6.00 Build 0)  -->
<svg version="1.1" id="Layer_1" xmlns="http://www.w3.org/2000/svg" xmlns:xlink="http://www.w3.org/1999/xlink" x="0px" y="0px"
	 viewBox="0 0 1000 1000" style="enable-background:new 0 0 1000 1000;" xml:space="preserve">
<style type="text/css">
	.st0{fill:#FAE14E;}
	.st1{opacity:0.57;fill:#FFFFFF;enable-background:new    ;}
	.st2{opacity:0.65;fill:#FFFFFF;enable-background:new    ;}
	.st3{opacity:0.65;fill:#FDF3A0;enable-background:new    ;}
	.st4{opacity:0.65;fill:#DEF1F9;enable-background:new    ;}
	.st5{fill:#010202;}
</style>
<circle class="st0" cx="500" cy="500" r="468.4"/>
<image style="overflow:visible;enable-background:new    ;" width="695" height="886" xlink:href="96E0EBFFECF301A6.png"  transform="matrix(0.1876 0 0 0.1872 555.4548 289.3973)">
</image>
<image style="overflow:visible;enable-background:new    ;" width="348" height="438" xlink:href="96E0EBFFECF301AA.png"  transform="matrix(0.1838 0 0 0.1852 574.6281 344.2427)">
</image>
<path class="st1" d="M600,354.3c0,8.9-5.7,16.1-12.7,16.1s-12.7-7.2-12.7-16.1s5.7-16.1,12.7-16.1C594.3,338.2,600,345.4,600,354.3z
	"/>
<path class="st2" d="M611.8,366.8c0,6.9-4.4,12.5-9.9,12.5c-5.4,0-9.9-5.6-9.9-12.5s4.4-12.5,9.9-12.5
	C607.4,354.3,611.8,359.9,611.8,366.8z"/>
<image style="overflow:visible;opacity:0.24;enable-background:new    ;" width="256" height="272" xlink:href="96E0EBFFECF301AD.png"  transform="matrix(0.1833 0 0 0.1844 587.9849 373)">
</image>
<path class="st3" d="M616.1,412.9c0,5-3.2,9-7.1,9c-3.9,0-7.1-4-7.1-9c0-4.9,3.2-9,7.1-9C612.9,404,616.1,408,616.1,412.9z"/>
<ellipse class="st4" cx="613.1" cy="406.5" rx="4.1" ry="5.2"/>
<image style="overflow:visible;opacity:0.65;enable-background:new    ;" width="221" height="232" xlink:href="96E0EBFFECF301AE.png"  transform="matrix(0.1823 0 0 0.179 578.4966 349.7335)">
</image>
<image style="overflow:visible;enable-background:new    ;" width="695" height="886" xlink:href="96E0EBFFECF301AC.png"  transform="matrix(0.1876 0 0 0.1872 356.4548 292.3973)">
</image>
<image style="overflow:visible;enable-background:new    ;" width="348" height="438" xlink:href="96E0EBFFECF301AB.png"  transform="matrix(0.1838 0 0 0.1852 375.628 347.2427)">
</image>
<path class="st2" d="M412.8,369.8c0,6.9-4.4,12.5-9.9,12.5s-9.9-5.6-9.9-12.5s4.4-12.5,9.9-12.5S412.8,362.9,412.8,369.8z"/>
<image style="overflow:visible;opacity:0.24;enable-background:new    ;" width="256" height="272" xlink:href="96E0EBFFECF301A5.png"  transform="matrix(0.1833 0 0 0.1844 388.9849 376)">
</image>
<path class="st3" d="M417.1,415.9c0,5-3.2,9-7.1,9s-7.1-4-7.1-9c0-4.9,3.2-9,7.1-9C413.9,407,417.1,411,417.1,415.9z"/>
<ellipse class="st4" cx="414.1" cy="409.5" rx="4.1" ry="5.2"/>
<image style="overflow:visible;opacity:0.65;enable-background:new    ;" width="221" height="232" xlink:href="96E0EBFFECF301A7.png"  transform="matrix(0.1823 0 0 0.179 379.4966 352.7335)">
</image>
<path class="st5" d="M343.1,280c0,0,8.6-44.1,65.9-47.4s73.7,31.4,73.7,31.4s-17.2-54.4-74.1-49.9C346.7,218.8,343.1,280,343.1,280z
	"/>
<path class="st5" d="M692.3,280c0,0-8.6-44.1-65.9-47.4c-57.3-3.3-73.7,31.4-73.7,31.4s17.2-54.4,74.1-49.9
	C688.6,218.8,692.3,280,692.3,280z"/>
<image style="overflow:visible;enable-background:new    ;" width="558" height="358" xlink:href="96E0EBFFECF301A4.png"  transform="matrix(0.2391 0 0 0.238 612.2205 479.3144)">
</image>
<image style="overflow:visible;enable-background:new    ;" width="558" height="358" xlink:href="CE821BFD3F1F3D59.png"  transform="matrix(0.2391 0 0 0.238 288.2205 481.3075)">
</image>
<path class="st5" d="M707.1,588.6c0,0-35,130.8-189.5,128.1C363.1,714.1,329,600.5,329,600.5s34.8,126.8,188.6,126.8
	C684.5,727.3,707.1,588.6,707.1,588.6z"/>
<path class="st5" d="M626.1,719c0,0-19.1,37.3-103.6,36.5c-84.5-0.7-103.2-33.1-103.2-33.1s19,36.1,103.2,36.1
	C613.8,758.5,626.1,719,626.1,719z"/>
<path class="st5" d="M675,590.1c0,0,11.5-12.6,35-5s23.4,21.6,23.4,21.6s0.6-15.5-22.9-22.8C685,576.1,675,590.1,675,590.1z"/>
<path class="st5" d="M304.7,615.9c0,0-0.8-15.9,23-22.9c23.7-7,34.3,3.8,34.3,3.8s-11.2-12.2-34.8-5
	C301.7,599.7,304.7,615.9,304.7,615.9z"/>
</svg>
